# Blender v2.81 (sub 16) OBJ File: ''
# www.blender.org
mtllib Axe.mtl
o Cube
v 1.876276 0.172397 -0.110842
v 2.006651 -0.172397 -0.191820
v 1.876276 0.172397 0.110842
v 2.006651 -0.172397 0.191820
v 1.214022 0.172397 -0.128139
v -2.006651 -0.172397 -0.191820
v 1.214022 0.172397 0.128139
v -2.006651 -0.172397 0.191820
v 2.006651 0.172397 0.191820
v -2.006651 0.172397 0.191820
v 2.006651 0.172397 -0.191820
v -2.006651 0.172397 -0.191820
v 1.876276 0.870575 0.110842
v 1.793441 0.953410 0.030142
v 1.296857 0.953410 0.043112
v 1.214022 0.870575 0.128139
v 1.876276 0.870575 -0.110842
v 1.793441 0.953410 -0.030142
v 1.296857 0.953410 -0.043112
v 1.214022 0.870575 -0.128139
vt 0.591241 0.000000
vt 0.860072 0.000000
vt 0.860072 0.173966
vt 0.591241 0.173966
vt 0.591241 0.999915
vt 0.451313 0.999915
vt 0.451313 0.000000
vt 0.591241 0.000000
vt 0.925140 0.608539
vt 0.785213 0.608539
vt 0.785212 0.512947
vt 0.925140 0.512947
vt 0.155693 1.000000
vt 0.155693 0.000000
vt 0.311385 0.000000
vt 0.311385 1.000000
vt 1.000000 0.095592
vt 0.860072 0.095592
vt 0.860072 0.000000
vt 1.000000 0.000000
vt 0.451313 0.999915
vt 0.311385 0.999915
vt 0.311385 0.000000
vt 0.451313 0.000000
vt 0.032863 0.032486
vt 0.025843 0.197500
vt 0.000000 1.000000
vt 0.000000 0.000000
vt 0.122829 0.032486
vt 0.155692 0.000000
vt 0.129849 0.197500
vt 0.155693 1.000000
vt 0.695247 0.347932
vt 0.785212 0.347932
vt 0.785212 0.521898
vt 0.695247 0.521898
vt 0.849448 0.368572
vt 0.854711 0.492306
vt 0.819719 0.492306
vt 0.824983 0.368572
vt 0.591241 0.347932
vt 0.695247 0.347932
vt 0.695247 0.521898
vt 0.591241 0.521898
vt 0.785212 0.512947
vt 0.792232 0.347932
vt 0.752462 0.542538
vt 0.727997 0.542538
vt 0.660740 0.542538
vt 0.625748 0.542538
vt 0.882198 0.347932
vt 0.889218 0.512947
vt 0.591241 0.173966
vt 0.860072 0.173966
vt 0.860072 0.347932
vt 0.591241 0.347932
vn 0.0261 0.0000 -0.9997
vn 0.0000 0.0000 1.0000
vn -1.0000 0.0000 0.0000
vn 0.0000 -1.0000 0.0000
vn 1.0000 0.0000 0.0000
vn 0.0000 0.0000 -1.0000
vn 0.0000 1.0000 0.0000
vn 0.0185 0.7071 0.7069
vn 0.7071 0.7071 0.0000
vn -0.7071 0.7071 0.0000
vn 0.0185 0.7071 -0.7069
vn 0.0261 0.0000 0.9997
usemtl Material
s off
f 1/1/1 5/2/1 20/3/1 17/4/1
f 4/5/2 9/6/2 10/7/2 8/8/2
f 8/9/3 10/10/3 12/11/3 6/12/3
f 6/13/4 2/14/4 4/15/4 8/16/4
f 2/17/5 11/18/5 9/19/5 4/20/5
f 6/21/6 12/22/6 11/23/6 2/24/6
f 3/25/7 7/26/7 10/27/7 9/28/7
f 1/29/7 3/25/7 9/28/7 11/30/7
f 7/26/7 5/31/7 12/32/7 10/27/7
f 5/31/7 1/29/7 11/30/7 12/32/7
f 3/33/5 1/34/5 17/35/5 13/36/5
f 18/37/7 19/38/7 15/39/7 14/40/7
f 5/41/3 7/42/3 16/43/3 20/44/3
f 14/40/8 15/39/8 16/45/8 13/46/8
f 18/47/9 14/48/9 13/36/9 17/35/9
f 15/49/10 19/50/10 20/44/10 16/43/10
f 19/38/11 18/37/11 17/51/11 20/52/11
f 7/53/12 3/54/12 13/55/12 16/56/12
