# Blender v2.81 (sub 16) OBJ File: 'car.blend'
# www.blender.org
mtllib car.mtl
o Cube
v 1.294932 1.000000 -4.499825
v 1.462267 -1.001566 -0.747612
v 1.175496 1.000000 2.823317
v 1.462267 -0.999913 0.596069
v -1.294932 1.000000 -4.499825
v -1.462267 -1.001313 -0.725580
v -1.175496 1.000000 2.823317
v -1.462267 -0.994241 0.576423
v -1.455182 1.000000 1.238536
v 1.460423 1.000000 1.238536
v 1.294932 1.000000 -2.971440
v -1.294932 1.000000 -2.971440
v 1.462267 2.512508 -0.746557
v -1.462267 2.478335 -0.731635
v 1.462267 0.999913 0.596069
v -1.462267 0.994241 0.576423
v 1.175496 0.133327 2.823317
v -1.175496 0.133327 2.823317
v 1.324020 0.133327 1.238536
v -1.316211 0.133327 1.238536
v -1.462267 1.002332 -0.731635
v -1.462267 1.001313 -0.725580
v 1.462267 1.001566 -0.747612
v 1.462267 1.001948 -0.746557
v -1.294932 0.108575 -2.848365
v -1.294932 0.108575 -4.499825
v 1.294932 0.108575 -4.499825
v 1.294932 0.108575 -2.848365
v -1.462267 1.002332 0.573341
v 1.462267 1.000496 0.597373
v -1.462267 2.478335 0.573341
v 1.462267 2.492727 0.597373
v -1.462267 1.001615 0.998152
v -1.462267 1.001615 -2.831173
v -1.449627 2.824913 0.987557
v -1.296897 2.711821 -2.831173
v -1.462267 -1.000000 -4.640092
v -1.462267 -1.000000 3.063700
v -1.462267 1.000000 3.063700
v -1.462267 1.000000 -4.640092
v -1.296897 1.113091 -2.831173
v -1.462267 1.000000 0.998152
v -1.462267 -1.098443 -4.640092
v -1.462267 -1.098443 3.063700
v 1.462267 -1.098443 -4.640092
v 1.462267 -1.098443 3.063700
v 1.296897 2.711821 -2.831172
v 1.449627 2.824913 0.987557
v 1.462267 1.000000 -4.640092
v 1.462267 -1.000000 -4.640092
v 1.462267 1.000000 3.063700
v 1.462267 -1.000000 3.063700
v 1.462267 1.000000 0.998152
v 1.296897 1.113091 -2.831172
v -1.449627 2.824913 -2.820578
v -1.462267 1.000000 -2.831173
v 1.462267 1.000000 -2.831172
v 1.449627 2.824913 -2.820577
v -1.462267 2.478335 -0.731635
v -1.462267 2.824913 -2.831173
v -1.435629 2.824913 -2.831173
v -1.435629 1.000000 -2.831173
v -1.435629 2.478335 -0.731635
v -1.435629 1.002332 -0.731635
v 1.462267 2.824913 -2.831172
v 1.462267 2.824913 0.998152
v -1.462267 2.824913 0.998152
v -1.462267 2.824913 -2.831173
v -1.314143 -1.000000 -4.640092
v -1.314143 -1.000000 3.063700
v -1.314143 1.000000 3.063700
v -1.314143 1.000000 -4.640092
v -1.314143 2.824913 0.998152
v -1.314143 2.824913 -2.831173
v -1.314143 1.000000 0.998152
v -1.314143 2.478335 0.573341
v -1.314143 2.478335 -0.731635
v -1.314143 1.002332 0.573341
v -1.314143 -0.994241 0.576423
v -1.314143 0.994241 0.576423
v -1.314143 1.001313 -0.725580
v -1.314143 -1.001313 -0.725580
v -1.314143 -1.098443 -4.640092
v -1.314143 -1.098443 3.063700
v -1.287504 2.824913 -2.831173
v -1.287504 1.000000 -2.831173
v -1.287504 2.478335 -0.731635
v -1.287504 1.002332 -0.731635
v 1.317102 1.000000 -4.640092
v 1.317102 -1.000000 -4.640092
v 1.317102 1.000000 3.063700
v 1.317102 -1.000000 3.063700
v 1.317102 2.824913 -2.831172
v 1.317102 2.824913 0.998152
v 1.317102 1.000000 0.998152
v 1.317102 1.000000 -2.831172
v 1.317102 -1.098443 3.063700
v 1.317102 -1.098443 -4.640092
v 1.317102 2.512508 -0.746557
v 1.317102 2.492727 0.597373
v 1.317102 1.000496 0.597373
v 1.317102 1.001948 -0.746557
v 1.317102 1.001566 -0.747612
v 1.317102 -1.001566 -0.747612
v 1.317102 0.999913 0.596069
v 1.317102 -0.999913 0.596069
v -1.455182 1.000000 0.921815
v 1.460423 1.000000 0.921815
v -1.316211 0.133327 1.215261
v 1.324020 0.133327 1.215261
v -1.462267 -1.153642 -4.640092
v -1.462267 -1.153642 3.063700
v 1.462267 -1.153642 -4.640092
v 1.462267 -1.153642 3.063700
v -1.294932 -1.022809 -2.093774
v 1.294932 -1.022809 -2.093774
v 1.449627 2.716641 -2.820577
v 1.449627 2.716641 0.987557
v -1.449627 2.716641 0.987557
v -1.449627 2.716641 -2.820578
v -1.462267 -1.000000 2.870429
v -1.462267 1.000000 2.870429
v 1.462267 1.000000 2.870429
v 1.462267 -1.000000 2.870429
v -1.294932 1.000000 -2.838073
v 1.294932 1.000000 -2.838072
v -1.294932 0.108575 -2.838073
v 1.294932 0.108575 -2.838072
v -1.316211 -1.013849 1.238536
v 1.324020 -1.013849 1.238536
v -1.316211 -1.013849 1.215261
v 1.324020 -1.013849 1.215261
vt 0.172191 0.955013
vt 0.172191 0.831361
vt 0.260745 0.831361
vt 0.260745 0.955013
vt 0.198680 0.821598
vt 0.198680 0.623266
vt 0.198680 0.623266
vt 0.198680 0.821598
vt 0.000161 0.623266
vt 0.000733 0.422036
vt 0.000733 0.422036
vt 0.000161 0.623266
vt 0.000000 0.821598
vt 0.000000 0.623266
vt 0.198680 0.623266
vt 0.198680 0.821598
vt 0.000000 0.990797
vt 0.000000 0.831361
vt 0.086095 0.831361
vt 0.086095 0.990797
vt 0.408158 0.623866
vt 0.605121 0.623866
vt 0.605121 0.623866
vt 0.408158 0.623866
vt 0.767784 0.803608
vt 0.767784 0.644171
vt 0.787266 0.624723
vt 0.787266 0.823056
vt 0.639345 0.803608
vt 0.619863 0.823056
vt 0.639345 0.644171
vt 0.619863 0.624723
vt 0.619863 0.982492
vt 0.619863 0.823056
vt 0.748302 0.823056
vt 0.748302 0.982492
vt 0.873672 0.175636
vt 0.873672 0.175636
vt 0.787577 0.175636
vt 0.787577 0.175636
vt 0.787577 0.303851
vt 0.873672 0.303851
vt 0.172191 0.831361
vt 0.172191 0.959575
vt 0.086095 0.959575
vt 0.086095 0.831361
vt 0.798634 0.898566
vt 0.922503 0.898566
vt 0.933871 0.909914
vt 0.787266 0.909914
vt 0.922503 0.722930
vt 0.933871 0.711581
vt 0.798634 0.722930
vt 0.787266 0.711581
vt 0.911446 0.000000
vt 0.911446 0.175636
vt 0.787577 0.175636
vt 0.787577 0.000000
vt 0.260745 0.955013
vt 0.260745 0.831361
vt 0.349299 0.831361
vt 0.349299 0.955013
vt 0.798634 0.722930
vt 0.798634 0.898566
vt 0.495854 0.824364
vt 0.495854 1.000000
vt 0.407300 1.000000
vt 0.407300 0.824364
vt 0.000000 0.000000
vt 0.000000 0.000000
vt 0.000000 0.000000
vt 0.000000 0.000000
vt 0.407300 0.314916
vt 0.407300 0.314916
vt 0.407300 0.624723
vt 0.407300 0.624723
vt 0.000000 0.000000
vt 0.000000 0.000000
vt 0.000000 0.000000
vt 0.198268 0.422036
vt 0.198971 0.316699
vt 0.198840 0.000000
vt 0.198840 0.623266
vt 0.198971 0.316699
vt 0.198840 0.000000
vt 0.397360 0.821598
vt 0.397360 0.821598
vt 0.397360 0.623266
vt 0.397360 0.623266
vt 0.000030 0.316699
vt 0.000000 0.146348
vt 0.000160 0.146348
vt 0.000160 0.000000
vt 0.000000 0.456155
vt 0.000161 0.456155
vt 0.208620 0.623266
vt 0.208620 0.000000
vt 0.208620 0.000000
vt 0.208620 0.623266
vt 0.000000 0.000000
vt 0.000000 0.000000
vt 0.000000 0.000000
vt 0.000000 0.000000
vt 0.198680 0.831361
vt 0.000000 0.831361
vt 0.397360 0.831361
vt 0.198680 0.831361
vt 0.198680 0.623266
vt 0.198680 0.821598
vt 0.000000 0.000000
vt 0.000000 0.000000
vt 0.000000 0.000000
vt 0.000000 0.000000
vt 0.208620 0.623266
vt 0.208620 0.000000
vt 0.978494 0.938182
vt 0.978494 0.938182
vt 0.978482 0.314916
vt 0.978482 0.314916
vt 0.000000 0.000000
vt 0.000000 0.000000
vt 0.978332 0.623266
vt 0.978494 0.514557
vt 0.798501 0.524464
vt 0.787266 0.513249
vt 0.787266 0.711581
vt 0.798501 0.700367
vt 0.957318 0.700367
vt 0.968553 0.711581
vt 0.957318 0.524464
vt 0.968553 0.513249
vt 0.787266 0.711581
vt 0.787266 0.711581
vt 0.968553 0.711581
vt 0.968553 0.711581
vt 0.000000 0.000000
vt 0.640408 0.484777
vt 0.605979 0.314916
vt 0.605979 0.314916
vt 0.640408 0.484777
vt 0.605121 0.315773
vt 0.605979 0.314916
vt 0.605979 0.624723
vt 0.408158 0.315773
vt 0.198840 0.623266
vt 0.208620 0.000000
vt 0.208620 0.623266
vt 0.640408 0.484777
vt 0.605979 0.314916
vt 0.605979 0.624723
vt 0.640408 0.590354
vt 0.787266 0.624723
vt 0.787034 0.590354
vt 0.198268 0.422036
vt 0.000160 0.000000
vt 0.000030 0.316699
vt 0.787034 0.484777
vt 0.787266 0.314916
vt 0.605979 0.314916
vt 0.640408 0.484777
vt 0.000000 0.831361
vt 0.000000 0.821598
vt 0.000000 0.000000
vt 0.000000 0.000000
vt 0.000000 0.000000
vt 0.000000 0.000000
vt 0.000000 0.623266
vt 0.787266 0.513249
vt 0.787266 0.513249
vt 0.968553 0.513249
vt 0.968553 0.513249
vt 0.000000 0.000000
vt 0.000000 0.000000
vt 0.000000 0.000000
vt 0.000000 0.000000
vt 0.397360 0.831361
vt 0.000000 0.000000
vt 0.000000 0.000000
vt 0.000000 0.000000
vt 0.000000 0.000000
vt 0.000000 0.000000
vt 0.000000 0.000000
vt 0.000000 0.000000
vt 0.000000 0.000000
vt 0.407300 0.623266
vt 0.407300 0.000000
vt 0.407300 0.000000
vt 0.407300 0.623266
vt 0.968553 0.938182
vt 0.968553 0.314916
vt 0.978332 0.314916
vt 0.978332 0.938182
vt 0.639290 0.032425
vt 0.606291 0.000000
vt 0.606291 0.309807
vt 0.637325 0.141154
vt 0.787528 0.032425
vt 0.787577 0.000000
vt 0.787577 0.309807
vt 0.787384 0.141154
vt 0.407300 0.000000
vt 0.407455 0.314916
vt 0.606135 0.314916
vt 0.606291 0.000000
vt 0.605971 0.824364
vt 0.605979 0.624723
vt 0.407300 0.624723
vt 0.407308 0.824364
vt 0.978332 0.623266
vt 0.000000 0.000000
vt 0.000000 0.000000
vt 0.000000 0.000000
vt 0.000000 0.000000
vt 0.978494 0.514557
vt 0.198680 0.831361
vt 0.000000 0.000000
vt 0.000000 0.000000
vt 0.000000 0.000000
vt 0.000000 0.000000
vt 0.968553 0.314916
vt 0.968553 0.314916
vt 0.787266 0.314916
vt 0.787266 0.314916
vt 0.198680 0.821598
vt 0.198680 0.831361
vt 0.000000 0.000000
vt 0.000000 0.000000
vt 0.968553 0.513249
vt 0.787266 0.513249
vt 0.000000 0.000000
vt 0.000000 0.000000
vt 0.605979 0.624723
vt 0.605979 0.314916
vt 0.000000 0.000000
vt 0.000000 0.000000
vt 0.198680 0.623266
vt 0.581949 0.824364
vt 0.495854 0.824364
vt 0.495854 0.983800
vt 0.581949 0.983800
vt 0.086095 0.831361
vt 0.086095 0.831361
vt 0.086095 0.831361
vt 0.639345 0.803608
vt 0.639345 0.644171
vt 0.172191 0.831361
vt 0.407300 0.623266
vt 0.407300 0.000000
vt 0.198680 0.831361
vt 0.000000 0.831361
vt 0.397360 0.831361
vt 0.198680 0.831361
vt 0.787577 0.175636
vt 0.787577 0.000000
vt 0.605121 0.315773
vt 0.408158 0.315773
vt 0.397360 0.623266
vt 0.397360 0.821598
vt 0.787266 0.624723
vt 0.787266 0.823056
vt 1.000000 0.000000
vt 0.911446 0.000000
vt 0.911446 0.175636
vt 1.000000 0.175636
vt 0.260745 0.831361
vt 0.349299 0.831361
vt 0.260745 0.955013
vt 0.172191 0.955013
vt 0.787577 0.175636
vt 0.787577 0.000000
vt 0.619863 0.823056
vt 0.619863 0.982492
vt 0.619863 0.982492
vt 0.619863 0.823056
vt 0.873672 0.175636
vt 0.873672 0.175636
vt 0.495854 0.824364
vt 0.495854 0.983800
vn -1.0000 0.0000 0.0000
vn 0.0000 -1.0000 0.0023
vn 0.0000 0.0000 -1.0000
vn 0.0000 1.0000 0.0000
vn 0.9878 -0.1555 0.0000
vn -0.9878 0.0777 -0.1351
vn 0.9882 0.0792 -0.1311
vn 1.0000 0.0000 0.0000
vn 0.0000 -1.0000 0.0000
vn 0.0000 0.0000 1.0000
vn 0.0000 1.0000 -0.0011
vn 0.0000 1.0000 0.0003
vn -1.0000 0.0005 0.0000
vn 0.0000 1.0000 -0.0009
vn 0.0000 -1.0000 0.0004
vn 0.0000 -0.9866 -0.1629
vn 0.0000 -1.0000 0.0003
vn 0.0000 1.0000 0.0055
vn 0.0000 1.0000 0.0023
vn 0.0000 0.9866 0.1629
vn 0.0000 1.0000 0.0004
vn 0.0000 1.0000 0.0012
vn 0.0000 -0.9999 -0.0147
vn 0.9992 0.0396 0.0002
vn 1.0000 0.0038 -0.0028
vn 0.0000 -0.3207 -0.9472
vn -0.9874 -0.1583 0.0000
vn -0.0000 0.5549 0.8319
vn 0.0000 -0.1368 -0.9906
usemtl Material
s off
f 11/1/1 1/2/1 27/3/1 28/4/1
f 52/5/1 51/6/1 123/7/1 124/8/1
f 39/9/2 16/10/2 80/11/2 71/12/2
f 37/13/3 40/14/3 49/15/3 50/16/3
f 7/17/3 3/18/3 17/19/3 18/20/3
f 55/21/3 58/22/3 117/23/3 120/24/3
f 3/25/4 7/26/4 39/27/4 51/28/4
f 10/29/4 3/25/4 51/28/4 53/30/4
f 7/26/4 9/31/4 42/32/4 39/27/4
f 19/33/4 20/34/4 18/35/4 17/36/4
f 19/37/5 110/38/5 108/39/5 10/40/5
f 3/41/6 10/40/6 19/37/6 17/42/6
f 9/43/7 7/44/7 18/45/7 20/46/7
f 12/47/4 5/48/4 40/49/4 56/50/4
f 5/48/4 1/51/4 49/52/4 40/49/4
f 1/51/4 11/53/4 57/54/4 49/52/4
f 11/53/4 12/47/4 56/50/4 57/54/4
f 27/55/4 26/56/4 25/57/4 28/58/4
f 5/59/8 12/60/8 25/61/8 26/62/8
f 12/47/9 11/53/9 126/63/9 125/64/9
f 1/65/10 5/66/10 26/67/10 27/68/10
f 64/69/10 88/70/10 87/71/10 63/72/10
f 67/73/4 73/74/4 74/75/4 68/76/4
f 56/77/11 21/78/11 64/69/11 62/79/11
f 8/80/1 6/81/1 37/82/1 38/83/1
f 37/82/12 6/81/12 82/84/12 69/85/12
f 38/86/10 70/87/10 71/88/10 39/89/10
f 22/90/13 34/91/13 56/92/13 40/93/13
f 33/94/1 16/10/1 39/9/1 42/95/1
f 45/96/8 46/97/8 114/98/8 113/99/8
f 24/100/14 57/101/14 96/102/14 102/103/14
f 37/13/3 50/16/3 45/104/3 43/105/3
f 52/5/10 38/86/10 44/106/10 46/107/10
f 51/6/10 91/108/10 92/109/10 52/5/10
f 49/110/15 23/111/15 103/112/15 89/113/15
f 46/97/4 45/96/4 98/114/4 97/115/4
f 50/116/4 90/117/4 92/118/4 52/119/4
f 13/120/10 99/121/10 102/103/10 24/100/10
f 2/122/1 4/123/1 52/119/1 50/116/1
f 47/124/10 65/125/10 68/126/10 36/127/10
f 36/127/3 41/128/3 56/129/3 68/126/3
f 54/130/3 47/124/3 65/125/3 57/131/3
f 61/132/3 85/133/3 86/134/3 62/135/3
f 21/78/3 14/136/3 63/72/3 64/69/3
f 14/137/16 68/138/16 61/139/16 63/140/16
f 68/126/10 56/129/10 62/135/10 61/132/10
f 58/22/4 48/141/4 66/142/4 65/143/4
f 48/141/4 35/144/4 67/73/4 66/142/4
f 35/144/4 55/21/4 68/76/4 67/73/4
f 55/21/4 58/22/4 65/143/4 68/76/4
f 70/145/1 69/85/1 83/146/1 84/147/1
f 77/148/8 74/149/8 73/150/8 76/151/8
f 76/151/8 73/150/8 75/152/8 78/153/8
f 80/11/8 71/12/8 70/145/8 79/154/8
f 82/84/8 69/85/8 72/155/8 81/156/8
f 88/157/8 86/158/8 85/159/8 87/160/8
f 37/13/10 43/105/10 83/161/10 69/162/10
f 14/136/9 77/163/9 76/164/9 31/165/9
f 62/79/11 64/69/11 88/70/11 86/166/11
f 22/90/17 40/93/17 72/155/17 81/156/17
f 40/14/10 37/13/10 69/162/10 72/167/10
f 42/168/10 75/169/10 73/170/10 67/171/10
f 16/172/3 80/173/3 79/174/3 8/175/3
f 44/106/3 38/86/3 70/87/3 84/176/3
f 31/165/3 76/164/3 78/177/3 29/178/3
f 63/140/16 61/139/16 85/159/16 87/160/16
f 6/179/10 82/180/10 81/181/10 22/182/10
f 38/83/4 70/145/4 69/85/4 37/82/4
f 29/178/18 42/183/18 75/184/18 78/177/18
f 43/185/4 44/186/4 84/187/4 83/188/4
f 8/80/19 38/83/19 70/145/19 79/154/19
f 68/138/20 14/137/20 77/148/20 74/149/20
f 22/182/1 40/14/1 37/82/1 6/179/1
f 56/129/1 21/78/1 14/137/1 68/126/1
f 68/76/1 14/136/1 31/165/1 67/73/1
f 67/171/1 31/165/1 29/178/1 42/168/1
f 39/89/1 16/172/1 8/80/1 38/86/1
f 37/82/1 43/185/1 44/106/1 38/83/1
f 90/189/8 92/190/8 97/191/8 98/192/8
f 100/193/1 94/194/1 93/195/1 99/196/1
f 101/197/1 95/198/1 94/194/1 100/193/1
f 99/196/1 93/195/1 96/199/1 102/200/1
f 103/201/1 89/202/1 90/203/1 104/204/1
f 106/205/1 92/206/1 91/207/1 105/208/1
f 2/122/21 50/116/21 90/117/21 104/209/21
f 53/210/22 30/211/22 101/212/22 95/213/22
f 52/119/4 4/123/4 106/214/4 92/118/4
f 52/5/3 46/107/3 97/215/3 92/109/3
f 15/216/9 51/217/9 91/218/9 105/219/9
f 66/220/10 94/221/10 95/222/10 53/223/10
f 45/104/10 50/16/10 90/224/10 98/225/10
f 23/111/10 103/112/10 104/226/10 2/227/10
f 57/131/3 96/228/3 93/229/3 65/125/3
f 32/230/23 100/231/23 99/121/23 13/120/23
f 65/143/4 93/232/4 94/233/4 66/142/4
f 4/234/3 106/235/3 105/219/3 15/216/3
f 50/16/10 49/15/10 89/236/10 90/224/10
f 30/211/3 101/212/3 100/231/3 32/230/3
f 2/227/8 50/16/8 49/110/8 23/111/8
f 52/5/8 4/234/8 15/216/8 51/6/8
f 53/223/8 30/211/8 32/230/8 66/220/8
f 48/141/24 32/230/24 13/120/24 58/22/24
f 13/120/25 24/100/25 57/101/25 58/22/25
f 45/96/8 50/116/8 52/5/8 46/97/8
f 108/237/26 110/238/26 109/239/26 107/240/26
f 109/241/8 20/46/8 129/242/8 131/243/8
f 10/29/4 108/244/4 107/245/4 9/31/4
f 9/43/27 107/246/27 109/241/27 20/46/27
f 9/31/10 20/34/10 19/37/10 10/29/10
f 111/247/9 113/99/9 114/98/9 112/248/9
f 43/105/3 45/104/3 113/249/3 111/250/3
f 46/107/10 44/106/10 112/251/10 114/252/10
f 44/186/1 43/185/1 111/247/1 112/248/1
f 70/145/4 92/118/4 90/117/4 69/85/4
f 25/57/28 115/253/28 116/254/28 28/58/28
f 117/23/9 118/255/9 119/256/9 120/24/9
f 48/141/10 35/144/10 119/256/10 118/255/10
f 35/144/1 55/21/1 120/24/1 119/256/1
f 58/22/8 48/141/8 118/255/8 117/23/8
f 73/74/4 94/194/4 93/195/4 74/75/4
f 124/8/10 123/7/10 122/257/10 121/258/10
f 39/89/8 38/86/8 121/258/8 122/257/8
f 38/86/4 52/5/4 124/8/4 121/258/4
f 51/28/9 39/27/9 122/259/9 123/260/9
f 70/87/10 92/109/10 91/108/10 71/88/10
f 125/261/10 127/262/10 128/263/10 126/264/10
f 25/61/8 12/60/8 125/265/8 127/266/8
f 11/1/1 28/4/1 128/267/1 126/268/1
f 28/58/4 25/57/4 127/269/4 128/270/4
f 11/53/29 28/58/29 25/61/29 12/47/29
f 129/271/4 130/272/4 132/273/4 131/274/4
f 20/34/3 19/33/3 130/272/3 129/271/3
f 19/37/1 110/38/1 132/275/1 130/276/1
f 110/238/3 132/277/3 131/278/3 109/239/3
l 60 68
l 14 59
