# Blender v2.81 (sub 16) OBJ File: ''
# www.blender.org
mtllib Fridge.mtl
o Cube
v -0.930479 1.000000 -0.716653
v -0.930479 -0.716654 -0.716654
v -0.930479 1.000000 0.716653
v -0.930479 -0.716654 0.716654
v -1.000000 1.000000 -1.000000
v -1.000000 -1.000000 -1.000000
v -1.000000 1.000000 1.000000
v -1.000000 -1.000000 1.000000
v -0.930479 2.818020 0.716654
v -1.000000 3.101366 1.000000
v -0.930479 2.818020 -0.716654
v -1.000000 3.101366 -1.000000
v 1.000000 1.000000 -1.000000
v 1.000000 -1.000000 -1.000000
v 1.000000 1.000000 1.000000
v 1.000000 -1.000000 1.000000
v 1.000000 3.101366 -1.000000
v 1.000000 3.101366 1.000000
vt 0.503404 0.256179
vt 0.252036 0.256179
vt 0.252036 0.000000
vt 0.503403 0.000000
vt 0.252036 0.500000
vt 0.503404 0.500000
vt 0.000000 0.500000
vt 0.000000 0.256179
vt 0.252036 0.256179
vt 0.252036 0.500000
vt 0.928586 0.743821
vt 0.677219 0.743821
vt 0.677219 0.500000
vt 0.928586 0.500000
vt 0.245229 0.930914
vt 0.245229 0.721636
vt 0.425852 0.721636
vt 0.425852 0.930914
vt 0.503404 0.500000
vt 0.503404 0.256179
vt 0.754771 0.256179
vt 0.754771 0.500000
vt 0.425852 0.500000
vt 0.677219 0.500000
vt 0.677219 0.743821
vt 0.425852 0.743821
vt 0.000000 0.000000
vt 0.252036 0.000000
vt 0.245229 0.500000
vt 0.425852 0.500000
vt 0.503404 0.000000
vt 0.754771 0.000000
vt 0.754771 0.243821
vt 0.754771 0.034543
vt 1.000000 0.000000
vt 1.000000 0.243821
vt 0.000000 0.965457
vt 0.000000 0.756179
vt 0.245229 0.756179
vt 0.245229 1.000000
vt 0.671081 0.778364
vt 0.671081 0.953100
vt 0.425852 0.987643
vt 0.425852 0.743821
vt 0.916310 0.778364
vt 0.916310 0.953100
vt 0.671081 0.987642
vt 0.671081 0.743821
vt 0.000000 0.534543
vt 0.245229 0.500000
vt 0.754771 0.465457
vt 1.000000 0.500000
vn 0.0000 0.0000 1.0000
vn -1.0000 0.0000 0.0000
vn 0.0000 -1.0000 0.0000
vn 1.0000 -0.0000 0.0000
vn 0.0000 0.0000 -1.0000
vn 0.0000 1.0000 0.0000
vn 0.1452 -0.0000 0.9894
vn 0.1452 -0.0000 -0.9894
vn 0.1452 0.9894 0.0000
vn 0.1452 -0.9894 0.0000
usemtl Material
s off
f 7/1/1 15/2/1 18/3/1 10/4/1
f 16/5/1 15/2/1 7/1/1 8/6/1
f 8/7/2 7/8/2 5/9/2 6/10/2
f 6/11/3 14/12/3 16/13/3 8/14/3
f 2/15/4 1/16/4 3/17/4 4/18/4
f 6/19/5 5/20/5 13/21/5 14/22/5
f 17/23/6 12/24/6 10/25/6 18/26/6
f 5/9/2 7/8/2 10/27/2 12/28/2
f 3/17/4 1/16/4 11/29/4 9/30/4
f 13/21/5 5/20/5 12/31/5 17/32/5
f 1/33/7 2/34/7 14/35/7 13/36/7
f 4/37/8 3/38/8 15/39/8 16/40/8
f 2/41/9 4/42/9 16/43/9 14/44/9
f 9/45/10 11/46/10 17/47/10 18/48/10
f 3/38/8 9/49/8 18/50/8 15/39/8
f 11/51/7 1/33/7 13/36/7 17/52/7
